<?xml version="1.0" encoding="utf-8"?>
<!-- Generator: Adobe Illustrator 22.1.0, SVG Export Plug-In . SVG Version: 6.00 Build 0)  -->
<svg version="1.1" id="Layer_1" xmlns="http://www.w3.org/2000/svg" xmlns:xlink="http://www.w3.org/1999/xlink" x="0px" y="0px"
	 viewBox="0 0 500 500" style="enable-background:new 0 0 500 500;" xml:space="preserve">
<style type="text/css">
	.st0{fill:#FF0000;}
	.st1{fill:#B72020;}
</style>
<path class="st0" d="M279.2,29.2c-7.6-5.4-18-8.2-31.3-8.2c-16.5,0-30.2,4-41,12c-14.5,10.5-25.8,30.4-34,59.5h-21.5l-1.6,5.4h21.7
	l-48.9,183l-0.8,0.2c-2.7,8.2-18.9,62.6-24.7,68.3c-5.7,5.8-12.5,8.8-20.3,9.1l-1.1,5.5c26.3-1.1,45.6-6.4,58.1-16
	c8.4-6.5,15-14.2,19.6-23.1c4.6-8.9,16.7-38.6,20-54.7l-0.2,0l46.1-172.3h26.9l1.6-5.4h-26.9l9.2-34.8c3.6-13.6,8-22.6,13-26.9
	c3.4-2.9,7.9-4.3,13.3-4.3c2.2,0,4.5,0.5,7.1,1.6c-7.6,2.9-13.5,7.2-17.8,12.9c-4.3,5.7-6.4,12.1-6.4,19.2c0,6,1.9,10.6,5.8,13.7
	c3.9,3.2,9.2,4.8,15.9,4.8c5.6,0,10.6-1.4,15.1-4.1c4.4-2.7,7.9-6.2,10.5-10.3c2.5-4.2,3.8-8.4,3.8-12.8
	C290.7,42,286.9,34.6,279.2,29.2z"/>
<path class="st0" d="M325.5,200.4c-7.6-5.4-18-8.2-31.3-8.2c-16.5,0-30.2,4-41,12c-14.5,10.5-25.8,30.4-34,59.5h0.8l-27,117l2.6-14
	c-2.7,8.2-21.9,74.8-27.6,80.5c-5.7,5.8-12.5,8.8-20.3,9.1l-1.1,5.5c26.3-1.1,45.6-6.4,58.1-16c8.4-6.5,15-14.2,19.6-23.1
	c4.6-8.9,16.7-38.6,20-54.7l-0.2,0L268.4,261l-0.4,0l8.5-32.1c3.6-13.6,8-22.6,13-26.9c3.4-2.9,7.9-4.3,13.3-4.3
	c2.2,0,4.5,0.5,7.1,1.6c-7.6,2.9-13.5,7.2-17.8,12.9c-4.3,5.7-6.4,12.1-6.4,19.2c0,6,1.9,10.6,5.8,13.7c3.9,3.2,9.2,4.8,15.9,4.8
	c5.6,0,10.6-1.4,15.1-4.1c4.4-2.7,7.9-6.2,10.5-10.3c2.5-4.2,3.8-13.9,3.8-18.2C336.9,207.8,333.1,205.8,325.5,200.4z"/>
<path class="st1" d="M242.8,132.6c-16.5,0-30.2,3.9-41.1,11.9c-14.5,10.5-25.9,30.3-34.1,59.5l0.8,0l-30,136l-0.3-1.8"/>
<path class="st1" d="M264.3,181.4c-16.5,0-30.2,4-41,12c-14.5,10.5-25.8,30.4-34,59.5h0.8l-29.8,136.1l-0.3-1.8"/>
<path class="st0" d="M298.3,116.1c-7.6-5.4-18-8.2-31.3-8.2c-16.5,0-30.2,4-41,12c-14.5,10.5-25.8,30.4-34,59.5h0.8L163,315.5
	l3.9-15.5c-2.7,8.2-23.2,76.3-28.9,82.1c-5.7,5.8-12.5,8.8-20.3,9.1l-1.1,5.5c26.3-1.1,45.6-6.4,58.1-16c8.4-6.5,15-14.2,19.6-23.1
	c4.6-8.9,16.7-38.6,20-54.7l-0.2,0l27.1-126.1l-0.4,0l8.5-32.1c3.6-13.6,8-22.6,13-26.9c3.4-2.9,7.9-4.3,13.3-4.3
	c2.2,0,4.5,0.5,7.1,1.6c-7.6,2.9-13.5,7.2-17.8,12.9c-4.3,5.7-6.4,12.1-6.4,19.2c0,6,1.9,10.6,5.8,13.7c3.9,3.2,9.2,4.8,15.9,4.8
	c5.6,0,10.6-1.4,15.1-4.1c4.4-2.7,7.9-6.2,10.5-10.3c2.5-4.2,3.8-8.4,3.8-12.8C309.7,129,305.9,121.6,298.3,116.1z"/>
<g transform="translate(0,-952.36218)">
	<path class="st1" d="M352.6,1224.3c-1.2,0.1-2.3,0.9-2.9,2.1l-36.3,73c-33.5,0-67.1,0-100.6,0c-1.6,0-3.2,1.4-3.6,3.3
		c-0.9,4.5-0.1,9.7,1.7,15.8c1.9,6.1,5,13,9.5,19.7c8.6,12.9,22.4,25.3,41.9,30.8v14.1c0,2.2,1.8,4.3,3.7,4.3c16.2,0,32.4,0,48.6,0
		c1.9,0,3.7-2,3.7-4.3V1369c19.5-5.4,33.3-17.9,41.9-30.8c4.5-6.7,7.6-13.6,9.5-19.7c1.9-6.1,2.7-11.3,1.7-15.8
		c-0.4-1.9-1.9-3.3-3.6-3.3h-35.7l34.3-40.1c1.1-1.2,1.4-3.2,0.8-4.8c-0.6-1.6-2.1-2.7-3.6-2.6c-1,0-1.9,0.5-2.5,1.3l-39.4,46.1
		l34.2-68.7c1.3-2.6-0.6-6.4-3.2-6.4C352.9,1224.3,352.8,1224.3,352.6,1224.3z"/>
</g>
<g transform="translate(0,-952.36218)">
	<path class="st0" d="M332.4,1299.4l34.3-40.1c1.1-1.2,1.4-3.2,0.8-4.8c-0.6-1.6-2.1-2.7-3.6-2.6c-1,0-1.9,0.5-2.5,1.3l-39.4,46.1
		l34.2-68.7c1.3-2.6-0.6-6.4-3.2-6.4c-0.1,0-0.2,0-0.3,0c-1.2,0.1-2.3,0.9-2.9,2.1l-36.3,73"/>
</g>
</svg>
